G04 #@! TF.FileFunction,Copper,L2,Bot,Signal*
%FSLAX46Y46*%
G04 Gerber Fmt 4.6, Leading zero omitted, Abs format (unit mm)*
G04 Created by KiCad (PCBNEW 4.0.2-4+6225~38~ubuntu15.10.1-stable) date Sun 03 Apr 2016 18:07:33 BST*
%MOMM*%
G01*
G04 APERTURE LIST*
%ADD10C,0.150000*%
%ADD11C,0.381000*%
%ADD12R,1.397000X1.397000*%
%ADD13C,1.397000*%
%ADD14R,2.000000X1.900000*%
%ADD15C,1.900000*%
%ADD16C,3.500120*%
G04 APERTURE END LIST*
D10*
D11*
X65218000Y-79689440D02*
X65817440Y-81289640D01*
X65118940Y-79791040D02*
X64717620Y-81289640D01*
X65616780Y-79389720D02*
X64819220Y-79389720D01*
X64618560Y-79090000D02*
X65616780Y-79090000D01*
X65616780Y-78790280D02*
X64819220Y-78790280D01*
X69218500Y-81289640D02*
X67216980Y-81289640D01*
X67519240Y-80989920D02*
X69116900Y-80989920D01*
X69218500Y-80690200D02*
X67717360Y-80690200D01*
X67618300Y-80390480D02*
X69218500Y-80390480D01*
X69116900Y-80090760D02*
X67717360Y-80090760D01*
X68017080Y-79791040D02*
X69116900Y-79791040D01*
X69218500Y-79488780D02*
X68217740Y-79488780D01*
X68217740Y-79189060D02*
X69218500Y-79189060D01*
X69116900Y-78889340D02*
X68217740Y-78889340D01*
X68118680Y-78589620D02*
X69116900Y-78589620D01*
X69218500Y-78289900D02*
X67717360Y-78289900D01*
X67618300Y-77990180D02*
X69116900Y-77990180D01*
X69218500Y-77891120D02*
X67818960Y-77891120D01*
X67717360Y-77588860D02*
X69116900Y-77588860D01*
X69116900Y-77289140D02*
X67717360Y-77289140D01*
X67216980Y-76989420D02*
X69017840Y-76989420D01*
X69116900Y-76689700D02*
X66117160Y-76689700D01*
X65919040Y-76389980D02*
X69116900Y-76389980D01*
X64417900Y-76389980D02*
X61319100Y-76389980D01*
X61217500Y-76590640D02*
X64318840Y-76590640D01*
X63219020Y-76890360D02*
X61319100Y-76890360D01*
X61217500Y-77091020D02*
X62916760Y-77091020D01*
X62718640Y-77390740D02*
X61319100Y-77390740D01*
X61319100Y-77690460D02*
X62617040Y-77690460D01*
X62916760Y-77990180D02*
X61217500Y-77990180D01*
X61217500Y-78289900D02*
X62817700Y-78289900D01*
X62317320Y-78589620D02*
X61217500Y-78589620D01*
X61217500Y-78889340D02*
X62218260Y-78889340D01*
X62317320Y-79189060D02*
X61217500Y-79189060D01*
X61217500Y-79488780D02*
X62317320Y-79488780D01*
X62418920Y-79791040D02*
X61319100Y-79791040D01*
X61217500Y-80090760D02*
X62916760Y-80090760D01*
X62817700Y-80390480D02*
X61319100Y-80390480D01*
X62817700Y-80690200D02*
X61418160Y-80690200D01*
X61319100Y-80989920D02*
X62817700Y-80989920D01*
X63117420Y-81289640D02*
X61418160Y-81289640D01*
X65218000Y-80690200D02*
X65017340Y-81391240D01*
X65218000Y-80591140D02*
X65418660Y-81391240D01*
X61517220Y-81589360D02*
X61418160Y-83890600D01*
X69017840Y-81589360D02*
X69017840Y-83890600D01*
X68718120Y-81589360D02*
X68718120Y-84091260D01*
X61717880Y-81589360D02*
X61717880Y-84091260D01*
X69218500Y-81589360D02*
X61217500Y-81589360D01*
X65197680Y-79770720D02*
X65228160Y-80060280D01*
X65228160Y-80060280D02*
X64659200Y-81429340D01*
X64659200Y-81429340D02*
X64217240Y-81279480D01*
X64217240Y-81279480D02*
X64179140Y-81231220D01*
X64179140Y-81231220D02*
X63787980Y-81500460D01*
X63798140Y-81459820D02*
X63597480Y-81429340D01*
X63587320Y-81469980D02*
X62909140Y-80829900D01*
X62909140Y-80829900D02*
X62817700Y-80598760D01*
X62817700Y-80598760D02*
X63086940Y-80121240D01*
X63086940Y-80121240D02*
X63059000Y-79968840D01*
X63059000Y-79968840D02*
X62378280Y-79780880D01*
X62378280Y-79780880D02*
X62317320Y-78599780D01*
X62317320Y-78599780D02*
X62987880Y-78350860D01*
X62987880Y-78350860D02*
X63059000Y-78150200D01*
X63059000Y-78150200D02*
X62787220Y-77619340D01*
X62787220Y-77619340D02*
X62909140Y-77309460D01*
X62909140Y-77309460D02*
X63549220Y-76699860D01*
X63549220Y-76699860D02*
X63757500Y-76689700D01*
X63757500Y-76689700D02*
X64179140Y-76948780D01*
X64179140Y-76948780D02*
X64356940Y-76870040D01*
X64356940Y-76870040D02*
X64577920Y-76311240D01*
X64577920Y-76311240D02*
X64598240Y-76240120D01*
X64598240Y-76240120D02*
X65769180Y-76219800D01*
X65759020Y-76179160D02*
X66007940Y-76849720D01*
X66007940Y-76849720D02*
X66127320Y-76920840D01*
X66127320Y-76920840D02*
X66828360Y-76621120D01*
X66828360Y-76621120D02*
X67679260Y-77520280D01*
X67679260Y-77520280D02*
X67407480Y-78150200D01*
X67407480Y-78150200D02*
X67448120Y-78279740D01*
X67448120Y-78279740D02*
X67968820Y-78361020D01*
X67968820Y-78361020D02*
X68118680Y-78419440D01*
X68118680Y-78419440D02*
X68088200Y-79679280D01*
X68088200Y-79679280D02*
X67448120Y-79910420D01*
X67448120Y-79910420D02*
X67417640Y-80009480D01*
X67417640Y-80009480D02*
X67717360Y-80619080D01*
X67717360Y-80619080D02*
X66896940Y-81459820D01*
X66896940Y-81459820D02*
X66787720Y-81551260D01*
X66787720Y-81551260D02*
X66198440Y-81259160D01*
X66198440Y-81259160D02*
X65936820Y-81398860D01*
X65936820Y-81398860D02*
X65708220Y-81398860D01*
X65708220Y-81398860D02*
X65167200Y-79890100D01*
X65167200Y-79890100D02*
X65408500Y-79580220D01*
X65408500Y-79580220D02*
X65487240Y-79590380D01*
X65487240Y-79590380D02*
X65698060Y-79450680D01*
X65698060Y-79450680D02*
X65837760Y-79250020D01*
X65837760Y-79250020D02*
X65797120Y-78810600D01*
X65797120Y-78810600D02*
X65517720Y-78521040D01*
X65517720Y-78521040D02*
X65157040Y-78449920D01*
X65157040Y-78449920D02*
X64819220Y-78569300D01*
X64819220Y-78569300D02*
X64588080Y-78869020D01*
X64588080Y-78869020D02*
X64598240Y-79270340D01*
X64598240Y-79270340D02*
X64707460Y-79460840D01*
X64707460Y-79460840D02*
X65218000Y-79770720D01*
X69218500Y-76090260D02*
X61217500Y-76090260D01*
X61217500Y-76090260D02*
X61217500Y-84091260D01*
X61217500Y-84091260D02*
X69218500Y-84091260D01*
X69218500Y-84091260D02*
X69218500Y-76090260D01*
X63500960Y-82171020D02*
X63140280Y-83641680D01*
X63140280Y-83641680D02*
X62860880Y-82579960D01*
X62860880Y-82579960D02*
X62551000Y-83651840D01*
X62551000Y-83651840D02*
X62210640Y-82201500D01*
X64920820Y-82861900D02*
X64130880Y-82851740D01*
X64130880Y-82851740D02*
X64120720Y-82861900D01*
X64120720Y-82861900D02*
X64120720Y-82851740D01*
X64080080Y-82140540D02*
X64080080Y-83682320D01*
X64969080Y-82130380D02*
X64969080Y-83700100D01*
X64969080Y-83700100D02*
X64958920Y-83689940D01*
X65520260Y-82231980D02*
X65870780Y-82150700D01*
X65870780Y-82150700D02*
X66190820Y-82140540D01*
X66190820Y-82140540D02*
X66429580Y-82341200D01*
X66429580Y-82341200D02*
X66460060Y-82610440D01*
X66460060Y-82610440D02*
X66218760Y-82851740D01*
X66218760Y-82851740D02*
X65830140Y-82981280D01*
X65830140Y-82981280D02*
X65649800Y-83141300D01*
X65649800Y-83141300D02*
X65609160Y-83441020D01*
X65609160Y-83441020D02*
X65840300Y-83662000D01*
X65840300Y-83662000D02*
X66160340Y-83689940D01*
X66160340Y-83689940D02*
X66510860Y-83580720D01*
X67549720Y-82130380D02*
X67798640Y-82150700D01*
X67798640Y-82150700D02*
X68039940Y-82392000D01*
X68039940Y-82392000D02*
X68128840Y-82882220D01*
X68128840Y-82882220D02*
X68100900Y-83230200D01*
X68100900Y-83230200D02*
X67900240Y-83550240D01*
X67900240Y-83550240D02*
X67648780Y-83672160D01*
X67648780Y-83672160D02*
X67338900Y-83601040D01*
X67338900Y-83601040D02*
X67120460Y-83420700D01*
X67120460Y-83420700D02*
X67049340Y-82960960D01*
X67049340Y-82960960D02*
X67100140Y-82552020D01*
X67100140Y-82552020D02*
X67209360Y-82270080D01*
X67209360Y-82270080D02*
X67570040Y-82140540D01*
D12*
X63500000Y-106680000D03*
D13*
X66040000Y-106680000D03*
X68580000Y-106680000D03*
D14*
X58420000Y-99060000D03*
D15*
X58420000Y-96520000D03*
D14*
X71120000Y-99060000D03*
D15*
X71120000Y-96520000D03*
D16*
X65000000Y-90000000D03*
X65000000Y-70000000D03*
D12*
X85500000Y-106680000D03*
D13*
X88040000Y-106680000D03*
X90580000Y-106680000D03*
D14*
X80420000Y-99060000D03*
D15*
X80420000Y-96520000D03*
D14*
X93120000Y-99060000D03*
D15*
X93120000Y-96520000D03*
D16*
X87000000Y-90000000D03*
X87000000Y-70000000D03*
M02*
