G04 #@! TF.FileFunction,Legend,Top*
%FSLAX46Y46*%
G04 Gerber Fmt 4.6, Leading zero omitted, Abs format (unit mm)*
G04 Created by KiCad (PCBNEW 4.0.2-4+6225~38~ubuntu15.10.1-stable) date Sun 03 Apr 2016 18:07:33 BST*
%MOMM*%
G01*
G04 APERTURE LIST*
%ADD10C,0.150000*%
G04 APERTURE END LIST*
D10*
X62230000Y-107950000D02*
X62230000Y-105410000D01*
X62230000Y-105410000D02*
X69850000Y-105410000D01*
X69850000Y-105410000D02*
X69850000Y-107950000D01*
X69850000Y-107950000D02*
X62230000Y-107950000D01*
X64770000Y-105410000D02*
X64770000Y-107950000D01*
X59944904Y-100274888D02*
G75*
G03X56920000Y-100290000I-1524904J2484888D01*
G01*
X59920000Y-100290000D02*
X56920000Y-100290000D01*
X60937936Y-97790000D02*
G75*
G03X60937936Y-97790000I-2517936J0D01*
G01*
X72644904Y-100274888D02*
G75*
G03X69620000Y-100290000I-1524904J2484888D01*
G01*
X72620000Y-100290000D02*
X69620000Y-100290000D01*
X73637936Y-97790000D02*
G75*
G03X73637936Y-97790000I-2517936J0D01*
G01*
X84230000Y-107950000D02*
X84230000Y-105410000D01*
X84230000Y-105410000D02*
X91850000Y-105410000D01*
X91850000Y-105410000D02*
X91850000Y-107950000D01*
X91850000Y-107950000D02*
X84230000Y-107950000D01*
X86770000Y-105410000D02*
X86770000Y-107950000D01*
X81944904Y-100274888D02*
G75*
G03X78920000Y-100290000I-1524904J2484888D01*
G01*
X81920000Y-100290000D02*
X78920000Y-100290000D01*
X82937936Y-97790000D02*
G75*
G03X82937936Y-97790000I-2517936J0D01*
G01*
X94644904Y-100274888D02*
G75*
G03X91620000Y-100290000I-1524904J2484888D01*
G01*
X94620000Y-100290000D02*
X91620000Y-100290000D01*
X95637936Y-97790000D02*
G75*
G03X95637936Y-97790000I-2517936J0D01*
G01*
M02*
