G04 #@! TF.FileFunction,Legend,Bot*
%FSLAX46Y46*%
G04 Gerber Fmt 4.6, Leading zero omitted, Abs format (unit mm)*
G04 Created by KiCad (PCBNEW 4.0.2-4+6225~38~ubuntu15.10.1-stable) date Sun 03 Apr 2016 18:07:33 BST*
%MOMM*%
G01*
G04 APERTURE LIST*
%ADD10C,0.150000*%
%ADD11C,0.300000*%
G04 APERTURE END LIST*
D10*
D11*
X89932286Y-78140000D02*
X89218000Y-78140000D01*
X90075143Y-78568571D02*
X89575143Y-77068571D01*
X89075143Y-78568571D01*
X88718000Y-77068571D02*
X88360857Y-78568571D01*
X88075143Y-77497143D01*
X87789429Y-78568571D01*
X87432286Y-77068571D01*
X86860857Y-78568571D02*
X86860857Y-77068571D01*
X86503714Y-77068571D01*
X86289429Y-77140000D01*
X86146571Y-77282857D01*
X86075143Y-77425714D01*
X86003714Y-77711429D01*
X86003714Y-77925714D01*
X86075143Y-78211429D01*
X86146571Y-78354286D01*
X86289429Y-78497143D01*
X86503714Y-78568571D01*
X86860857Y-78568571D01*
X84860857Y-77782857D02*
X84646571Y-77854286D01*
X84575143Y-77925714D01*
X84503714Y-78068571D01*
X84503714Y-78282857D01*
X84575143Y-78425714D01*
X84646571Y-78497143D01*
X84789429Y-78568571D01*
X85360857Y-78568571D01*
X85360857Y-77068571D01*
X84860857Y-77068571D01*
X84718000Y-77140000D01*
X84646571Y-77211429D01*
X84575143Y-77354286D01*
X84575143Y-77497143D01*
X84646571Y-77640000D01*
X84718000Y-77711429D01*
X84860857Y-77782857D01*
X85360857Y-77782857D01*
X89789428Y-79611429D02*
X89717999Y-79540000D01*
X89575142Y-79468571D01*
X89217999Y-79468571D01*
X89075142Y-79540000D01*
X89003713Y-79611429D01*
X88932285Y-79754286D01*
X88932285Y-79897143D01*
X89003713Y-80111429D01*
X89860856Y-80968571D01*
X88932285Y-80968571D01*
X88003714Y-79468571D02*
X87860857Y-79468571D01*
X87718000Y-79540000D01*
X87646571Y-79611429D01*
X87575142Y-79754286D01*
X87503714Y-80040000D01*
X87503714Y-80397143D01*
X87575142Y-80682857D01*
X87646571Y-80825714D01*
X87718000Y-80897143D01*
X87860857Y-80968571D01*
X88003714Y-80968571D01*
X88146571Y-80897143D01*
X88218000Y-80825714D01*
X88289428Y-80682857D01*
X88360857Y-80397143D01*
X88360857Y-80040000D01*
X88289428Y-79754286D01*
X88218000Y-79611429D01*
X88146571Y-79540000D01*
X88003714Y-79468571D01*
X86075143Y-80968571D02*
X86932286Y-80968571D01*
X86503714Y-80968571D02*
X86503714Y-79468571D01*
X86646571Y-79682857D01*
X86789429Y-79825714D01*
X86932286Y-79897143D01*
X84789429Y-79468571D02*
X85075143Y-79468571D01*
X85218000Y-79540000D01*
X85289429Y-79611429D01*
X85432286Y-79825714D01*
X85503715Y-80111429D01*
X85503715Y-80682857D01*
X85432286Y-80825714D01*
X85360858Y-80897143D01*
X85218000Y-80968571D01*
X84932286Y-80968571D01*
X84789429Y-80897143D01*
X84718000Y-80825714D01*
X84646572Y-80682857D01*
X84646572Y-80325714D01*
X84718000Y-80182857D01*
X84789429Y-80111429D01*
X84932286Y-80040000D01*
X85218000Y-80040000D01*
X85360858Y-80111429D01*
X85432286Y-80182857D01*
X85503715Y-80325714D01*
M02*
