G04 #@! TF.FileFunction,Copper,L1,Top,Signal*
%FSLAX46Y46*%
G04 Gerber Fmt 4.6, Leading zero omitted, Abs format (unit mm)*
G04 Created by KiCad (PCBNEW 4.0.2-4+6225~38~ubuntu15.10.1-stable) date Sun 03 Apr 2016 18:07:33 BST*
%MOMM*%
G01*
G04 APERTURE LIST*
%ADD10C,0.150000*%
%ADD11R,1.397000X1.397000*%
%ADD12C,1.397000*%
%ADD13R,2.000000X1.900000*%
%ADD14C,1.900000*%
%ADD15C,3.500120*%
%ADD16C,0.250000*%
G04 APERTURE END LIST*
D10*
D11*
X63500000Y-106680000D03*
D12*
X66040000Y-106680000D03*
X68580000Y-106680000D03*
D13*
X58420000Y-99060000D03*
D14*
X58420000Y-96520000D03*
D13*
X71120000Y-99060000D03*
D14*
X71120000Y-96520000D03*
D15*
X65000000Y-90000000D03*
X65000000Y-70000000D03*
D11*
X85500000Y-106680000D03*
D12*
X88040000Y-106680000D03*
X90580000Y-106680000D03*
D13*
X80420000Y-99060000D03*
D14*
X80420000Y-96520000D03*
D13*
X93120000Y-99060000D03*
D14*
X93120000Y-96520000D03*
D15*
X87000000Y-90000000D03*
X87000000Y-70000000D03*
D16*
X65000000Y-70000000D02*
X65000000Y-82574000D01*
X59690000Y-106680000D02*
X63500000Y-106680000D01*
X56388000Y-103378000D02*
X59690000Y-106680000D01*
X56388000Y-91186000D02*
X56388000Y-103378000D01*
X65000000Y-82574000D02*
X56388000Y-91186000D01*
X66040000Y-106680000D02*
X66040000Y-99060000D01*
X58420000Y-99060000D02*
X66040000Y-99060000D01*
X66040000Y-99060000D02*
X71120000Y-99060000D01*
X65000000Y-90000000D02*
X65000000Y-96496000D01*
X65000000Y-96496000D02*
X64976000Y-96520000D01*
X64976000Y-96520000D02*
X58420000Y-96520000D01*
X65024000Y-96520000D02*
X71120000Y-96520000D01*
X65000000Y-96496000D02*
X65024000Y-96520000D01*
X87000000Y-70000000D02*
X87000000Y-82574000D01*
X81690000Y-106680000D02*
X85500000Y-106680000D01*
X78388000Y-103378000D02*
X81690000Y-106680000D01*
X78388000Y-91186000D02*
X78388000Y-103378000D01*
X87000000Y-82574000D02*
X78388000Y-91186000D01*
X88040000Y-106680000D02*
X88040000Y-99060000D01*
X80420000Y-99060000D02*
X88040000Y-99060000D01*
X88040000Y-99060000D02*
X93120000Y-99060000D01*
X87000000Y-90000000D02*
X87000000Y-96496000D01*
X87000000Y-96496000D02*
X86976000Y-96520000D01*
X86976000Y-96520000D02*
X80420000Y-96520000D01*
X87024000Y-96520000D02*
X93120000Y-96520000D01*
X87000000Y-96496000D02*
X87024000Y-96520000D01*
M02*
