G04 #@! TF.FileFunction,Profile,NP*
%FSLAX46Y46*%
G04 Gerber Fmt 4.6, Leading zero omitted, Abs format (unit mm)*
G04 Created by KiCad (PCBNEW 4.0.2-4+6225~38~ubuntu15.10.1-stable) date Sun 03 Apr 2016 18:07:33 BST*
%MOMM*%
G01*
G04 APERTURE LIST*
%ADD10C,0.150000*%
G04 APERTURE END LIST*
D10*
X76218000Y-86090000D02*
X75218000Y-86090000D01*
X76218000Y-77090000D02*
X76218000Y-86090000D01*
X75218000Y-77090000D02*
X76218000Y-77090000D01*
X75218000Y-86090000D02*
X75218000Y-77090000D01*
X75218000Y-87090000D02*
X75218000Y-93090000D01*
X76218000Y-87090000D02*
X75218000Y-87090000D01*
X76218000Y-93090000D02*
X76218000Y-87090000D01*
X75218000Y-93090000D02*
X76218000Y-93090000D01*
X76218000Y-100090000D02*
X75218000Y-100090000D01*
X76218000Y-94090000D02*
X76218000Y-100090000D01*
X75218000Y-94090000D02*
X76218000Y-94090000D01*
X75218000Y-100090000D02*
X75218000Y-94090000D01*
X76218000Y-101090000D02*
X76218000Y-107090000D01*
X75218000Y-101090000D02*
X76218000Y-101090000D01*
X75218000Y-107090000D02*
X75218000Y-101090000D01*
X76218000Y-76090000D02*
X76218000Y-68090000D01*
X75218000Y-76090000D02*
X76218000Y-76090000D01*
X75218000Y-68090000D02*
X75218000Y-76090000D01*
X78218000Y-109090000D02*
X95218000Y-109090000D01*
X56218000Y-109090000D02*
X73218000Y-109090000D01*
X54218000Y-68090000D02*
X54218000Y-107090000D01*
X54218000Y-107090000D02*
G75*
G03X56218000Y-109090000I2000000J0D01*
G01*
X73218000Y-109090000D02*
G75*
G03X75218000Y-107090000I0J2000000D01*
G01*
X76218000Y-107090000D02*
G75*
G03X78218000Y-109090000I2000000J0D01*
G01*
X78218000Y-66090000D02*
G75*
G03X76218000Y-68090000I0J-2000000D01*
G01*
X75218000Y-68090000D02*
G75*
G03X73218000Y-66090000I-2000000J0D01*
G01*
X73218000Y-66090000D02*
X56218000Y-66090000D01*
X56218000Y-66090000D02*
G75*
G03X54218000Y-68090000I0J-2000000D01*
G01*
X95218000Y-66090000D02*
X78218000Y-66090000D01*
X97218000Y-107090000D02*
X97218000Y-68090000D01*
X95218000Y-109090000D02*
G75*
G03X97218000Y-107090000I0J2000000D01*
G01*
X97218000Y-68090000D02*
G75*
G03X95218000Y-66090000I-2000000J0D01*
G01*
M02*
